<svg width="183" height="104" viewBox="0 0 183 104" fill="none" xmlns="http://www.w3.org/2000/svg">
<path fill-rule="evenodd" clip-rule="evenodd" d="M80.8618 5.34737C75.876 5.68622 75.5605 5.80152 75.5605 7.28532C75.5605 7.99959 75.6661 8.2543 76.0958 8.57466C76.5931 8.94571 76.829 8.96109 79.4221 8.78969C80.9572 8.6883 82.2559 8.63948 82.3081 8.68082C82.3603 8.72237 80.3011 10.8571 77.7319 13.4245L73.0607 18.0926L68.3908 14.6625C63.0346 10.7287 62.991 10.7123 61.648 12.1238C56.1851 17.8643 48.0793 26.7577 47.9384 27.1655C47.5559 28.2718 48.7612 29.5186 49.8859 29.1799C50.3075 29.053 52.4705 26.8701 56.862 22.1399C60.3628 18.3691 63.2891 15.263 63.3648 15.2372C63.4406 15.2114 65.514 16.6809 67.9723 18.5025C71.7121 21.274 72.5605 21.8158 73.1684 21.8214C73.8462 21.8279 74.3077 21.4157 80.0711 15.6585L86.2477 9.48879L86.9011 10.9321C87.2605 11.7259 87.7707 12.8582 88.0349 13.4484C88.5441 14.5859 89.0174 14.9723 89.901 14.9723C90.5796 14.9723 91.4644 14.1149 91.4644 13.4571C91.4644 12.697 88.3956 6.00014 87.8031 5.46745C87.1955 4.92105 87.1472 4.92022 80.8618 5.34737ZM110.231 10.458C105.312 15.3743 104.77 15.9835 104.77 16.5961C104.77 17.6979 105.535 18.2964 106.943 18.2964H108.096V39.3931V60.4899L108.606 60.9997L109.116 61.5098H116.412H123.707L124.217 60.9997L124.727 60.4899V39.3931V18.2964H125.88C127.289 18.2964 128.054 17.6979 128.054 16.5961C128.054 15.9835 127.512 15.3743 122.592 10.458C117.554 5.42362 117.075 5 116.412 5C115.748 5 115.269 5.42362 110.231 10.458ZM119.446 12.0837L122.382 15.0122L121.892 15.5021L121.401 15.9922V32.1029V48.2134H116.412H111.422V32.1047V15.9963L110.937 15.5362L110.451 15.0762L113.377 12.1157C114.986 10.4873 116.349 9.15513 116.406 9.15513C116.464 9.15513 117.831 10.4729 119.446 12.0837ZM83.6207 23.7544C78.7011 28.6707 78.1591 29.2799 78.1591 29.8926C78.1591 30.9943 78.9242 31.5928 80.3327 31.5928H81.4854V44.3792V57.1658L81.9958 57.6756L82.506 58.1857H89.8012H97.0964L97.6066 57.6756L98.117 57.1658V44.3792V31.5928H99.2698C100.678 31.5928 101.443 30.9943 101.443 29.8926C101.443 29.2799 100.901 28.6707 95.9817 23.7544C90.944 18.72 90.4644 18.2964 89.8012 18.2964C89.138 18.2964 88.6584 18.72 83.6207 23.7544ZM92.8953 25.4397C95.2117 27.7585 95.8114 28.4682 95.5736 28.608C94.9451 28.9774 94.7907 29.7068 94.7907 32.3063V34.9169H89.8012H84.8117V32.3063C84.8117 29.7068 84.6573 28.9774 84.0288 28.608C83.791 28.4682 84.3908 27.7585 86.7071 25.4397C88.3487 23.7961 89.7411 22.4515 89.8012 22.4515C89.8613 22.4515 91.2538 23.7961 92.8953 25.4397ZM57.0103 30.4026C52.0906 35.3189 51.5487 35.9281 51.5487 36.5408C51.5487 37.6425 52.3137 38.241 53.7222 38.241H54.875V46.0413V53.8417L55.3854 54.3515L55.8955 54.8616H63.1907H70.486L70.9961 54.3515L71.5065 53.8417V46.0413V38.241H72.6593C74.0678 38.241 74.8328 37.6425 74.8328 36.5408C74.8328 35.9281 74.2908 35.3189 69.3712 30.4026C64.3335 25.3682 63.8539 24.9446 63.1907 24.9446C62.5276 24.9446 62.048 25.3682 57.0103 30.4026ZM66.2252 32.0283L69.1608 34.9568L68.6706 35.4467C68.2037 35.9133 68.1802 36.0712 68.1802 38.7511V41.5651H63.1907H58.2013V38.753C58.2013 36.0758 58.178 35.9187 57.7156 35.4808L57.23 35.0208L60.1557 32.0603C61.7648 30.4319 63.1282 29.0998 63.1855 29.0998C63.2427 29.0998 64.6105 30.4176 66.2252 32.0283ZM94.7907 46.5513V54.8616H89.8012H84.8117V46.5513V38.241H89.8012H94.7907V46.5513ZM68.1802 48.2134V51.5375H63.1907H58.2013V48.2134V44.8892H63.1907H68.1802V48.2134ZM121.401 54.8616V58.1857H116.412H111.422V54.8616V51.5375H116.412H121.401V54.8616ZM51.2614 58.4086C49.9562 58.7279 48.0777 59.8367 47.1646 60.8265C46.6979 61.3326 46.0197 62.3713 45.658 63.1344L45 64.5222V78.1303V91.7383L45.658 93.1262C46.5736 95.0577 47.7521 96.2606 49.6444 97.1951L51.2152 97.971H56.5273H61.8394L63.2408 97.3077C65.0576 96.4476 66.5726 94.9363 67.3617 93.1968C67.9476 91.906 67.9862 91.8684 68.5415 92.0504C70.5132 92.6965 86.8221 97.1321 88.5896 97.503C91.5444 98.1229 99.887 98.1748 102.795 97.5915C107.067 96.7341 110.735 95.4651 114.262 93.6241C117.113 92.1362 118.79 90.9919 121.505 88.6812C122.763 87.6108 126.832 84.1797 130.548 81.0563C134.265 77.9331 137.475 75.0856 137.683 74.7285C138.501 73.3232 137.65 69.8092 136.099 68.1916C134.175 66.1849 131.114 65.9836 127.829 67.6473C127.295 67.9176 124.914 69.3713 122.539 70.8777C116.424 74.7545 114.511 75.5724 110.407 76.0641C108.074 76.3438 105.082 76.0637 102.812 75.353L101.343 74.8932L104.536 73.1581C107.577 71.5058 107.751 71.3768 108.167 70.4655C108.77 69.1467 108.768 66.958 108.163 65.6339C107.008 63.1049 103.309 62.6959 97.2785 64.4302C95.9962 64.799 94.6641 65.0416 93.9213 65.0416C91.3858 65.0416 88.2015 63.9983 85.4288 62.2587C82.6282 60.5017 81.3794 59.9923 79.6304 59.8936C76.4114 59.7118 73.3239 61.0525 69.6155 64.242C68.8386 64.9103 68.163 65.4571 68.1141 65.4571C68.0655 65.4571 67.9673 65.1067 67.896 64.6781C67.5201 62.4148 65.6217 60.08 63.2408 58.9529L61.8394 58.2895L56.9539 58.2503C54.2669 58.2289 51.7052 58.2999 51.2614 58.4086ZM61.3995 61.7624C62.5415 62.0996 64.2637 63.8206 64.6011 64.9618C64.962 66.1828 64.962 90.0777 64.6011 91.2987C64.2637 92.4399 62.5415 94.161 61.3995 94.4982C60.8576 94.6581 59.0755 94.7508 56.5381 94.7508C54.0008 94.7508 52.2187 94.6581 51.6767 94.4982C50.5348 94.161 48.8126 92.4399 48.4752 91.2987C48.1143 90.0777 48.1143 66.1828 48.4752 64.9618C48.788 63.9035 50.5283 62.1027 51.5487 61.7813C52.5827 61.4558 60.3102 61.4408 61.3995 61.7624ZM80.4582 63.3796C80.8653 63.4926 81.8008 63.9634 82.5372 64.426C84.6375 65.7453 87.8776 67.2601 89.6973 67.7734C92.0814 68.4461 95.7528 68.4484 97.8051 67.7788C100.847 66.7857 104.03 66.4049 104.991 66.9187C105.46 67.1695 105.543 68.2922 105.133 68.845C104.991 69.038 99.7749 71.9578 93.5433 75.3335C87.3117 78.7091 82.0962 81.6254 81.9532 81.814C81.5532 82.3419 81.6362 83.4748 82.1091 83.9475C82.9326 84.7704 83.5018 84.5514 90.7993 80.6018L97.749 76.8405L99.3363 77.5793C101.41 78.5441 103.48 79.0978 106.085 79.3843C109.056 79.7111 112.922 79.2877 115.705 78.331C118.096 77.5089 122.134 75.2894 126.289 72.514C129.065 70.6602 130.388 70.0143 131.688 69.8803C132.495 69.797 132.906 69.857 133.302 70.1159C133.88 70.4944 134.77 72.3264 134.667 72.9247C134.604 73.2898 118.049 87.3904 116.204 88.6509C112.101 91.4533 107.019 93.4455 101.651 94.3563C99.3926 94.7394 98.5084 94.7828 94.8946 94.6885C91.8673 94.6095 90.228 94.4687 88.8657 94.1708C87.4884 93.8695 72.0791 89.6437 68.544 88.5977C68.2047 88.4973 68.1802 87.8811 68.1802 79.472V70.4539L70.1908 68.3605C74.0264 64.367 77.6621 62.6032 80.4582 63.3796ZM54.875 78.4018C54.4748 78.5279 53.6765 79.1028 53.1008 79.6791C51.6316 81.1507 51.2258 82.7032 51.8015 84.6505C52.1389 85.7917 53.8611 87.5128 55.003 87.85C56.9523 88.4255 58.5063 88.0197 59.9755 86.5515C62.0787 84.4496 62.0787 81.7833 59.9755 79.6814C58.5125 78.2196 56.8098 77.7925 54.875 78.4018ZM57.6909 81.9644C58.7223 82.9949 57.9915 84.7785 56.5381 84.7785C55.6835 84.7785 54.875 83.9705 54.875 83.1164C54.875 82.2624 55.6835 81.4544 56.5381 81.4544C56.9431 81.4544 57.3693 81.6428 57.6909 81.9644Z" fill="#004481"/>
</svg>
