<svg width="183" height="104" viewBox="0 0 183 104" fill="none" xmlns="http://www.w3.org/2000/svg">
<mask id="path-1-inside-1_174:309" fill="white">
<path fill-rule="evenodd" clip-rule="evenodd" d="M63.6178 4.41248C63.0197 4.72574 62.6685 5.08804 62.3284 5.74262L61.8612 6.64226L61.855 13.5336C61.8492 19.9273 61.8798 20.5904 62.2763 22.7156C63.2382 27.871 64.9127 31.4677 67.7908 34.561C69.2776 36.1587 71.7679 37.7718 76.3308 40.0927C81.5293 42.7368 82.2158 43.1714 83.9836 44.9365C86.1354 47.0852 86.4175 47.9955 86.723 53.776C86.8443 56.074 87.0351 58.0167 87.172 58.3501C87.3027 58.6687 87.7251 59.1676 88.1103 59.4587C88.6906 59.8972 88.9974 59.9892 89.8977 59.9942C91.1205 60.0011 91.7338 59.6683 92.4862 58.5897C92.9264 57.959 92.9277 57.9402 92.8281 53.776C92.6573 46.636 91.8748 44.3129 88.4428 40.7543C86.4677 38.7062 84.3833 37.3276 79.7489 35.0047C74.8452 32.5468 73.8311 31.8974 72.136 30.1295C70.0306 27.9339 68.8454 25.1555 68.24 20.9962C67.8923 18.6077 67.6727 14.4743 67.836 13.395L67.9621 12.5622L69.5184 13.0999C70.3744 13.3957 73.2062 14.0623 75.8115 14.5813C81.0464 15.6244 82.499 16.0179 84.1674 16.8452C87.9117 18.7018 90.4637 21.6955 91.5789 25.5395C92.0944 27.3162 92.2842 31.4389 91.9662 33.9433C91.7704 35.4841 91.7812 35.7903 92.0552 36.469C92.8506 38.4381 95.1856 39.0442 96.7984 37.6999C97.0983 37.4497 97.7056 36.6377 98.1478 35.8955C98.6066 35.1253 99.6028 33.9033 100.468 33.0492C102.773 30.775 105.28 29.6325 109.393 28.983C111.424 28.6621 116.337 28.2643 116.483 28.409C116.536 28.4618 116.348 29.0922 116.063 29.81C114.951 32.6183 112.787 35.1311 110.131 36.7002C109.454 37.1002 107.784 37.8844 106.42 38.4429C105.057 39.0016 103.206 39.8357 102.306 40.2963C97.2776 42.8733 95.1767 46.5589 94.8379 53.3981C94.7391 55.3947 94.7618 55.5974 95.1699 56.3663C95.8239 57.5983 96.4297 57.9565 97.8586 57.9565C99.2893 57.9565 99.9018 57.5937 100.531 56.3735C100.863 55.7305 100.955 55.2355 100.96 54.0618C100.963 53.2404 101.08 51.9385 101.218 51.1687C101.878 47.5083 103.181 46.2703 108.644 44.1141C112.458 42.6086 115.047 41.0607 117.097 39.0596C120.278 35.9542 122.163 32.2023 123.082 27.1443C123.637 24.094 123.315 22.9753 121.653 22.1784C120.84 21.7884 120.706 21.7788 118.894 21.9791C117.846 22.0948 115.259 22.3193 113.144 22.4776C106.417 22.9818 102.344 24.0773 99.0901 26.2577C98.6328 26.564 98.1977 26.7775 98.1231 26.7318C98.0486 26.6863 97.928 26.2101 97.8551 25.6737C97.5377 23.336 96.0728 19.8483 94.4797 17.6381C92.8266 15.3442 90.1786 13.1107 87.4496 11.7079C84.5615 10.2235 82.9722 9.74511 77.5094 8.71578C71.6745 7.61622 69.6694 6.91111 67.6494 5.2482C66.0025 3.89242 65.005 3.68563 63.6178 4.41248ZM45.0631 52.0483C44.3963 52.3054 43.7157 52.929 43.3708 53.5984C43.0109 54.2976 43 54.7403 43 68.7329C43 82.7255 43.0109 83.1682 43.3708 83.8674C44.44 85.9433 47.4254 86.0715 48.6663 84.0946L49.0954 83.4111L49.1474 70.7303L49.1991 58.0494H51.253H53.3069L53.313 73.0063L53.3194 87.9632H49.4186C45.7461 87.9632 45.4685 87.9877 44.6808 88.3812C43.7435 88.8494 43 90.025 43 91.0391C43 91.9983 43.7579 93.1834 44.6805 93.6666C45.4807 94.086 45.6109 94.0945 51.1481 94.0945C56.6361 94.0945 56.8234 94.0825 57.6346 93.6765C58.0941 93.4465 58.6605 92.9743 58.8934 92.6271L59.3169 91.9957V76.9735V61.9512H60.5118C63.5083 61.9512 70.4486 62.9332 74.321 63.9053C76.5555 64.466 80.0614 65.5972 82.3857 66.507C85.2946 67.6456 91.7523 70.6314 92.4557 71.1628C93.8291 72.2007 94.1963 73.6074 93.4028 74.7903C92.8797 75.5701 91.553 76.2578 90.5715 76.2578C90.1387 76.2578 87.6587 75.5348 84.5628 74.5061C78.7268 72.5667 73.9466 71.2412 72.7893 71.2412C71.13 71.2412 69.997 72.2841 69.8586 73.939C69.7624 75.0872 70.1651 76.0792 70.9528 76.6348C71.241 76.8382 72.7639 77.3393 74.3371 77.7485C77.1661 78.484 80.2197 79.4638 89.8877 82.7372C95.6812 84.6988 97.0458 84.9486 100.209 84.6271C105.679 84.071 111.236 82.0231 122.861 76.2793C127.788 73.8446 128.662 73.4714 129.425 73.4749C132.491 73.489 133.924 76.5056 131.836 78.5502C129.612 80.7289 115.098 87.9957 108.224 90.3722C102.779 92.2549 99.3997 92.8917 94.9516 92.8731C90.3046 92.8538 88.6489 92.5401 79.2911 89.9053C72.5334 88.0025 66.3364 86.6626 64.2945 86.6626C62.648 86.6626 61.38 87.9018 61.38 89.511C61.38 91.5835 62.3511 92.416 65.3186 92.8874C69.1705 93.4992 73.2531 94.4771 79.2911 96.2342C86.4764 98.3252 90.2285 98.9798 95.1391 98.9995C98.8423 99.0143 100.986 98.7325 104.986 97.7048C112.372 95.8067 120.132 92.419 131.05 86.3259C134.044 84.655 134.835 84.119 136.04 82.9466C139.085 79.9821 139.826 76.1552 138.053 72.5418C137.323 71.0543 135.594 69.3029 134.103 68.5408C133.031 67.9927 133.025 67.9851 133.025 67.1462C133.024 66.1211 132.596 64.4274 132.089 63.4423C131.108 61.5365 128.522 59.8413 126.169 59.5607C124.942 59.4143 124.593 59.2005 124.587 58.5892C124.583 58.0736 123.169 56.0997 122.3 55.3938C120.846 54.2138 119.483 53.7118 117.492 53.6228C114.759 53.5009 114.032 53.7335 108.239 56.5839C105.387 57.9874 102.032 59.5698 100.785 60.1003C98.3127 61.1514 97.5036 61.8117 97.2872 62.9545C96.9374 64.8014 98.4207 66.5962 100.297 66.5962C101.28 66.5962 104.516 65.2233 110.171 62.4068C115.511 59.7471 116.462 59.4061 117.657 59.7248C118.494 59.9481 119.142 60.8294 118.719 61.1692C118.182 61.6002 107.959 66.6105 105.62 67.5882C102.471 68.9051 101.86 69.4832 101.86 71.1442C101.86 72.1067 102.239 72.887 103.024 73.5416C104.203 74.5241 105.047 74.4509 108.276 73.0871C109.561 72.5444 113.554 70.6348 117.151 68.8435C123.345 65.7581 123.747 65.5864 124.778 65.5804C126.101 65.573 126.841 66.1027 126.826 67.0466C126.817 67.6118 126.742 67.6543 120.027 70.9112C112.73 74.4511 109.15 76.0144 105.68 77.1771C103.308 77.9718 100.136 78.6732 98.9132 78.6732H98.1512L98.6062 78.0089C99.8129 76.2476 100.279 73.6601 99.7546 71.6338C99.0124 68.7662 97.0957 66.5934 93.8642 64.9567C91.5627 63.791 86.2301 61.4522 83.4703 60.3981C76.6928 57.8094 68.663 56.2039 60.3485 55.7753L59.4107 55.7269L59.3124 54.7591C59.2085 53.7359 58.8006 53.0368 57.9322 52.3941C57.4371 52.0275 57.1528 52.0095 51.3794 51.9755C48.0601 51.956 45.2178 51.9887 45.0631 52.0483Z"/>
</mask>
<path fill-rule="evenodd" clip-rule="evenodd" d="M63.6178 4.41248C63.0197 4.72574 62.6685 5.08804 62.3284 5.74262L61.8612 6.64226L61.855 13.5336C61.8492 19.9273 61.8798 20.5904 62.2763 22.7156C63.2382 27.871 64.9127 31.4677 67.7908 34.561C69.2776 36.1587 71.7679 37.7718 76.3308 40.0927C81.5293 42.7368 82.2158 43.1714 83.9836 44.9365C86.1354 47.0852 86.4175 47.9955 86.723 53.776C86.8443 56.074 87.0351 58.0167 87.172 58.3501C87.3027 58.6687 87.7251 59.1676 88.1103 59.4587C88.6906 59.8972 88.9974 59.9892 89.8977 59.9942C91.1205 60.0011 91.7338 59.6683 92.4862 58.5897C92.9264 57.959 92.9277 57.9402 92.8281 53.776C92.6573 46.636 91.8748 44.3129 88.4428 40.7543C86.4677 38.7062 84.3833 37.3276 79.7489 35.0047C74.8452 32.5468 73.8311 31.8974 72.136 30.1295C70.0306 27.9339 68.8454 25.1555 68.24 20.9962C67.8923 18.6077 67.6727 14.4743 67.836 13.395L67.9621 12.5622L69.5184 13.0999C70.3744 13.3957 73.2062 14.0623 75.8115 14.5813C81.0464 15.6244 82.499 16.0179 84.1674 16.8452C87.9117 18.7018 90.4637 21.6955 91.5789 25.5395C92.0944 27.3162 92.2842 31.4389 91.9662 33.9433C91.7704 35.4841 91.7812 35.7903 92.0552 36.469C92.8506 38.4381 95.1856 39.0442 96.7984 37.6999C97.0983 37.4497 97.7056 36.6377 98.1478 35.8955C98.6066 35.1253 99.6028 33.9033 100.468 33.0492C102.773 30.775 105.28 29.6325 109.393 28.983C111.424 28.6621 116.337 28.2643 116.483 28.409C116.536 28.4618 116.348 29.0922 116.063 29.81C114.951 32.6183 112.787 35.1311 110.131 36.7002C109.454 37.1002 107.784 37.8844 106.42 38.4429C105.057 39.0016 103.206 39.8357 102.306 40.2963C97.2776 42.8733 95.1767 46.5589 94.8379 53.3981C94.7391 55.3947 94.7618 55.5974 95.1699 56.3663C95.8239 57.5983 96.4297 57.9565 97.8586 57.9565C99.2893 57.9565 99.9018 57.5937 100.531 56.3735C100.863 55.7305 100.955 55.2355 100.96 54.0618C100.963 53.2404 101.08 51.9385 101.218 51.1687C101.878 47.5083 103.181 46.2703 108.644 44.1141C112.458 42.6086 115.047 41.0607 117.097 39.0596C120.278 35.9542 122.163 32.2023 123.082 27.1443C123.637 24.094 123.315 22.9753 121.653 22.1784C120.84 21.7884 120.706 21.7788 118.894 21.9791C117.846 22.0948 115.259 22.3193 113.144 22.4776C106.417 22.9818 102.344 24.0773 99.0901 26.2577C98.6328 26.564 98.1977 26.7775 98.1231 26.7318C98.0486 26.6863 97.928 26.2101 97.8551 25.6737C97.5377 23.336 96.0728 19.8483 94.4797 17.6381C92.8266 15.3442 90.1786 13.1107 87.4496 11.7079C84.5615 10.2235 82.9722 9.74511 77.5094 8.71578C71.6745 7.61622 69.6694 6.91111 67.6494 5.2482C66.0025 3.89242 65.005 3.68563 63.6178 4.41248ZM45.0631 52.0483C44.3963 52.3054 43.7157 52.929 43.3708 53.5984C43.0109 54.2976 43 54.7403 43 68.7329C43 82.7255 43.0109 83.1682 43.3708 83.8674C44.44 85.9433 47.4254 86.0715 48.6663 84.0946L49.0954 83.4111L49.1474 70.7303L49.1991 58.0494H51.253H53.3069L53.313 73.0063L53.3194 87.9632H49.4186C45.7461 87.9632 45.4685 87.9877 44.6808 88.3812C43.7435 88.8494 43 90.025 43 91.0391C43 91.9983 43.7579 93.1834 44.6805 93.6666C45.4807 94.086 45.6109 94.0945 51.1481 94.0945C56.6361 94.0945 56.8234 94.0825 57.6346 93.6765C58.0941 93.4465 58.6605 92.9743 58.8934 92.6271L59.3169 91.9957V76.9735V61.9512H60.5118C63.5083 61.9512 70.4486 62.9332 74.321 63.9053C76.5555 64.466 80.0614 65.5972 82.3857 66.507C85.2946 67.6456 91.7523 70.6314 92.4557 71.1628C93.8291 72.2007 94.1963 73.6074 93.4028 74.7903C92.8797 75.5701 91.553 76.2578 90.5715 76.2578C90.1387 76.2578 87.6587 75.5348 84.5628 74.5061C78.7268 72.5667 73.9466 71.2412 72.7893 71.2412C71.13 71.2412 69.997 72.2841 69.8586 73.939C69.7624 75.0872 70.1651 76.0792 70.9528 76.6348C71.241 76.8382 72.7639 77.3393 74.3371 77.7485C77.1661 78.484 80.2197 79.4638 89.8877 82.7372C95.6812 84.6988 97.0458 84.9486 100.209 84.6271C105.679 84.071 111.236 82.0231 122.861 76.2793C127.788 73.8446 128.662 73.4714 129.425 73.4749C132.491 73.489 133.924 76.5056 131.836 78.5502C129.612 80.7289 115.098 87.9957 108.224 90.3722C102.779 92.2549 99.3997 92.8917 94.9516 92.8731C90.3046 92.8538 88.6489 92.5401 79.2911 89.9053C72.5334 88.0025 66.3364 86.6626 64.2945 86.6626C62.648 86.6626 61.38 87.9018 61.38 89.511C61.38 91.5835 62.3511 92.416 65.3186 92.8874C69.1705 93.4992 73.2531 94.4771 79.2911 96.2342C86.4764 98.3252 90.2285 98.9798 95.1391 98.9995C98.8423 99.0143 100.986 98.7325 104.986 97.7048C112.372 95.8067 120.132 92.419 131.05 86.3259C134.044 84.655 134.835 84.119 136.04 82.9466C139.085 79.9821 139.826 76.1552 138.053 72.5418C137.323 71.0543 135.594 69.3029 134.103 68.5408C133.031 67.9927 133.025 67.9851 133.025 67.1462C133.024 66.1211 132.596 64.4274 132.089 63.4423C131.108 61.5365 128.522 59.8413 126.169 59.5607C124.942 59.4143 124.593 59.2005 124.587 58.5892C124.583 58.0736 123.169 56.0997 122.3 55.3938C120.846 54.2138 119.483 53.7118 117.492 53.6228C114.759 53.5009 114.032 53.7335 108.239 56.5839C105.387 57.9874 102.032 59.5698 100.785 60.1003C98.3127 61.1514 97.5036 61.8117 97.2872 62.9545C96.9374 64.8014 98.4207 66.5962 100.297 66.5962C101.28 66.5962 104.516 65.2233 110.171 62.4068C115.511 59.7471 116.462 59.4061 117.657 59.7248C118.494 59.9481 119.142 60.8294 118.719 61.1692C118.182 61.6002 107.959 66.6105 105.62 67.5882C102.471 68.9051 101.86 69.4832 101.86 71.1442C101.86 72.1067 102.239 72.887 103.024 73.5416C104.203 74.5241 105.047 74.4509 108.276 73.0871C109.561 72.5444 113.554 70.6348 117.151 68.8435C123.345 65.7581 123.747 65.5864 124.778 65.5804C126.101 65.573 126.841 66.1027 126.826 67.0466C126.817 67.6118 126.742 67.6543 120.027 70.9112C112.73 74.4511 109.15 76.0144 105.68 77.1771C103.308 77.9718 100.136 78.6732 98.9132 78.6732H98.1512L98.6062 78.0089C99.8129 76.2476 100.279 73.6601 99.7546 71.6338C99.0124 68.7662 97.0957 66.5934 93.8642 64.9567C91.5627 63.791 86.2301 61.4522 83.4703 60.3981C76.6928 57.8094 68.663 56.2039 60.3485 55.7753L59.4107 55.7269L59.3124 54.7591C59.2085 53.7359 58.8006 53.0368 57.9322 52.3941C57.4371 52.0275 57.1528 52.0095 51.3794 51.9755C48.0601 51.956 45.2178 51.9887 45.0631 52.0483Z" fill="#004481" stroke="white" stroke-width="2.4" mask="url(#path-1-inside-1_174:309)"/>
</svg>
