<svg width="139" height="21" viewBox="0 0 139 21" fill="none" xmlns="http://www.w3.org/2000/svg">
<path fill-rule="evenodd" clip-rule="evenodd" d="M9.50317 0.0254968C6.21741 0.367172 3.33776 2.15536 1.58844 4.94037C-0.891801 8.88911 -0.428896 14.1044 2.70683 17.5399C4.44222 19.4412 6.61255 20.5779 9.21522 20.9486C9.70113 21.0178 11.3159 21.0169 11.8232 20.9472C14.2002 20.6204 16.3291 19.5661 17.9482 17.914C18.4795 17.3717 18.5927 17.2421 18.9452 16.772C19.9955 15.3712 20.6831 13.6634 20.9485 11.7971C21.0172 11.3135 21.0172 9.69127 20.9484 9.20798C20.7714 7.96379 20.4496 6.90371 19.9333 5.86401C19.3862 4.76247 18.8248 3.97716 17.9509 3.09108C16.3299 1.44735 14.3003 0.426268 11.9669 0.0805659C11.4631 0.00589383 10.005 -0.0266545 9.50317 0.0254968ZM6.79207 4.56812C7.08305 4.67025 7.43174 5.02618 7.53335 5.32479C7.77086 6.02289 7.44722 6.76053 6.79659 7.00411C6.02988 7.29117 5.24728 7.05277 4.90061 6.42654C4.78931 6.22541 4.77962 6.17511 4.77962 5.79698C4.77962 5.45206 4.79415 5.35886 4.87005 5.21687C5.06317 4.85571 5.34729 4.62693 5.74186 4.5149C5.9838 4.44623 6.52256 4.47352 6.79207 4.56812ZM14.5955 8.10035C15.0118 8.21349 15.47 8.47852 15.766 8.77746C16.0825 9.09719 16.2717 9.40335 16.4308 9.85315C16.6591 10.4986 16.6695 10.653 16.6695 13.3846V15.8861H15.3963H14.1231L14.1224 13.6361C14.1219 11.8601 14.1095 11.3286 14.0639 11.113C13.958 10.6131 13.7577 10.3245 13.3923 10.1452C13.0666 9.98548 12.6076 9.9824 12.275 10.1377C11.9789 10.2759 11.7323 10.5294 11.5669 10.8656L11.433 11.1376L11.4198 13.5119L11.4066 15.8861H10.1364H8.86612V12.0231V8.16002H10.1393H11.4125L11.4138 8.70455L11.4151 9.24908L11.5192 9.12579C11.5764 9.05798 11.6955 8.9164 11.7838 8.81111C12.0815 8.45629 12.6751 8.13167 13.1998 8.03669C13.4904 7.98413 14.3042 8.02124 14.5955 8.10035ZM7.45967 12.0334L7.47014 15.8861H6.17622H4.88229V12.0505C4.88229 9.94085 4.89486 8.20223 4.91026 8.18682C4.92562 8.17145 5.5032 8.16376 6.19371 8.16972L7.44919 8.18057L7.45967 12.0334Z" fill="#57B7F7"/>
<path fill-rule="evenodd" clip-rule="evenodd" d="M38.9556 0.0254968C35.5133 0.367172 32.4965 2.15536 30.6639 4.94037C28.0658 8.8887 28.5508 14.1047 31.8355 17.5399C33.6536 19.4412 35.9273 20.5779 38.6539 20.9486C39.163 21.0178 40.8546 21.0169 41.3861 20.9472C43.8764 20.6204 46.1066 19.5661 47.8028 17.914C48.3595 17.3717 48.4781 17.2421 48.8473 16.772C49.9476 15.3712 50.668 13.6634 50.946 11.7971C51.018 11.3135 51.018 9.69127 50.946 9.20798C50.7605 7.96379 50.4234 6.90371 49.8824 5.86401C49.3093 4.76247 48.7212 3.97716 47.8057 3.09108C46.1075 1.44735 43.9812 0.426268 41.5367 0.0805659C41.0089 0.00589383 39.4813 -0.0266545 38.9556 0.0254968ZM43.1304 5.87992C43.4832 5.96573 43.8694 6.15797 44.1352 6.38002L44.3583 6.56647L44.6471 6.49731C44.9958 6.4138 45.5129 6.22048 45.7683 6.078L45.9554 5.97366L45.9253 6.07027C45.8237 6.39629 45.4165 6.92541 45.1002 7.14231C44.9943 7.21493 44.9291 7.28118 44.9553 7.28952C45.0265 7.31221 45.6284 7.17762 45.9453 7.06814C46.0983 7.01529 46.2313 6.97961 46.241 6.98886C46.2979 7.04315 45.4389 7.92195 45.1558 8.09912C45.0621 8.15772 45.0549 8.19459 45.0296 8.74626C44.9815 9.79422 44.716 10.7369 44.1993 11.6943C43.8282 12.3821 43.4368 12.8981 42.8911 13.4194C41.9006 14.3654 40.7189 14.9646 39.3018 15.2392C38.8903 15.3189 38.6953 15.3311 37.8579 15.3297C37.0168 15.3283 36.8306 15.3159 36.4381 15.2348C35.7962 15.1022 35.2895 14.9337 34.6955 14.6553C33.9257 14.2945 33.9284 14.3044 34.5979 14.3012C35.4916 14.2969 36.1311 14.1487 36.9168 13.7636C37.121 13.6635 37.3807 13.5187 37.4939 13.4418C37.686 13.3114 37.6929 13.3007 37.596 13.2834C37.5389 13.2732 37.3806 13.2453 37.2442 13.2214C36.4772 13.0869 35.7261 12.4941 35.4393 11.7971L35.3717 11.6327L35.8296 11.632C36.4644 11.631 36.5385 11.5937 36.1577 11.4666C35.2419 11.1609 34.6082 10.38 34.4783 9.39698C34.4511 9.19109 34.4548 9.17732 34.5292 9.20699C34.7922 9.31175 35.1963 9.42793 35.3698 9.44864L35.5708 9.47264L35.2615 9.17593C34.616 8.5566 34.3623 7.72354 34.5669 6.89504C34.6164 6.69424 34.7567 6.35602 34.8216 6.28085C34.8261 6.27576 35.0705 6.49842 35.3649 6.77565C36.3311 7.68548 37.4247 8.27267 38.74 8.58784C38.9883 8.64734 40.0117 8.789 40.0327 8.76673C40.0383 8.76081 40.0238 8.63711 40.0004 8.49188C39.9534 8.19935 40.0017 7.77302 40.1202 7.43443C40.3734 6.71142 41.034 6.11943 41.8379 5.89533C42.1654 5.80405 42.788 5.79661 43.1304 5.87992Z" fill="#57B7F7"/>
<path fill-rule="evenodd" clip-rule="evenodd" d="M68.5027 0.0254936C65.2145 0.367331 62.3376 2.1534 60.587 4.93975C58.5573 8.17034 58.4675 12.3802 60.358 15.6787C61.3531 17.4148 62.8127 18.8423 64.5354 19.7642C66.0013 20.5486 67.6194 20.9812 69.1389 20.995L69.6934 21L69.7039 16.9217L69.7144 12.8434H68.5846H67.4548V11.5291V10.2149L68.5741 10.2039L69.6934 10.193L69.7167 8.81646C69.7378 7.567 69.7483 7.40954 69.8305 7.11118C70.1433 5.97587 70.898 5.22057 72.0347 4.90511C72.3304 4.82305 72.4602 4.81377 73.3286 4.81258C73.8595 4.81184 74.4741 4.82659 74.6944 4.84533L75.0949 4.87939V6.06393V7.24846L74.1193 7.26219C73.1494 7.27579 73.1426 7.27653 72.9318 7.38756C72.4792 7.62597 72.425 7.81696 72.425 9.17227V10.2136H73.7188C74.4305 10.2136 75.0126 10.2275 75.0126 10.2444C75.0125 10.2613 74.9385 10.838 74.8483 11.5259C74.758 12.2138 74.6841 12.7916 74.6841 12.81C74.6841 12.8284 74.1758 12.8434 73.5545 12.8434H72.425V16.7265C72.425 18.8622 72.4322 20.6096 72.4409 20.6096C72.5193 20.6096 73.497 20.2398 73.8671 20.0701C75.1025 19.5039 76.0617 18.822 77.0467 17.81C77.9036 16.9296 78.4356 16.1685 78.9813 15.0418C79.4664 14.0401 79.7974 12.9231 79.9493 11.775C80.0169 11.264 80.0169 9.68242 79.9493 9.20683C79.604 6.77711 78.6011 4.73298 76.9379 3.06912C75.3087 1.43928 73.2779 0.422887 70.9668 0.0805558C70.4629 0.00589309 69.0045 -0.0266511 68.5027 0.0254936Z" fill="#57B7F7"/>
<path fill-rule="evenodd" clip-rule="evenodd" d="M96.4073 0.328374C94.3723 0.85128 92.7971 1.71796 91.2834 3.14766C86.9055 7.28261 86.9055 13.6971 91.2834 17.8669C95.668 22.0431 102.354 22.0445 106.716 17.8703C111.104 13.6709 111.093 7.2677 106.692 3.12099C103.862 0.455425 99.9968 -0.594168 96.4073 0.328374ZM104.639 6.33277C105.032 6.51253 105.369 6.89767 105.533 7.35401C105.86 8.26626 105.897 12.4329 105.588 13.496C105.167 14.9452 104.862 15.0166 99.1212 15.016C93.389 15.0153 92.9256 14.9202 92.4701 13.649C92.1469 12.7469 92.1043 8.57475 92.4078 7.53167C92.7039 6.51379 93.0523 6.27712 94.5502 6.07614C96.5679 5.80566 103.893 5.99172 104.639 6.33277ZM97.6818 10.5074V12.4277L99.1665 11.6465C99.983 11.2168 100.75 10.7777 100.871 10.6704C101.113 10.4562 101.167 10.4961 99.0565 9.34L97.6818 8.58714V10.5074Z" fill="#57B7F7"/>
<path fill-rule="evenodd" clip-rule="evenodd" d="M127.503 0.0254968C124.217 0.367172 121.338 2.15536 119.588 4.94037C117.108 8.88911 117.571 14.1044 120.707 17.5399C122.442 19.4412 124.613 20.5779 127.215 20.9486C127.701 21.0178 129.316 21.0169 129.823 20.9472C132.2 20.6204 134.329 19.5661 135.948 17.914C136.48 17.3717 136.593 17.2421 136.945 16.772C137.995 15.3712 138.683 13.6634 138.948 11.7971C139.017 11.3135 139.017 9.69127 138.948 9.20798C138.771 7.96379 138.45 6.90371 137.933 5.86401C137.386 4.76247 136.825 3.97716 135.951 3.09108C134.33 1.44735 132.3 0.426268 129.967 0.0805659C129.463 0.00589383 128.005 -0.0266545 127.503 0.0254968ZM130.987 4.50253C132.167 4.57901 132.857 4.83776 133.489 5.44035C134.13 6.05265 134.426 6.80475 134.505 8.02326C134.557 8.82615 134.557 12.1577 134.505 12.9733C134.427 14.2034 134.124 14.9641 133.467 15.5865C132.854 16.1659 132.147 16.4273 130.987 16.5025C130.199 16.5536 126.819 16.5536 126.031 16.5025C124.851 16.426 124.16 16.1673 123.529 15.5647C122.888 14.9524 122.592 14.2003 122.513 12.9818C122.461 12.1849 122.461 8.75793 122.513 7.99979C122.595 6.79637 122.892 6.04812 123.529 5.44035C124.135 4.86221 124.863 4.57712 125.916 4.50566C126.611 4.45856 130.273 4.4563 130.987 4.50253ZM127.01 5.57556C125.776 5.59779 125.577 5.61061 125.3 5.68578C124.426 5.92253 123.93 6.41906 123.696 7.29108C123.622 7.56852 123.609 7.77438 123.586 9.05387C123.572 9.85065 123.572 11.1544 123.586 11.9512C123.609 13.2307 123.622 13.4365 123.696 13.7139C123.93 14.5863 124.428 15.0843 125.3 15.3185C125.577 15.393 125.783 15.4058 127.061 15.4287C127.857 15.443 129.16 15.443 129.957 15.4287C131.246 15.4057 131.44 15.3934 131.725 15.3167C132.576 15.0885 133.091 14.5733 133.321 13.7209C133.398 13.434 133.41 13.2455 133.433 11.9512C133.446 11.1544 133.446 9.8506 133.433 9.05387C133.41 7.76986 133.397 7.56951 133.322 7.29108C133.087 6.41713 132.587 5.91781 131.718 5.68767C131.398 5.60289 131.313 5.5989 129.002 5.56035C128.674 5.55489 127.778 5.56171 127.01 5.57556ZM131.987 6.60099C132.144 6.66046 132.327 6.83779 132.395 6.99774C132.594 7.46184 132.239 7.99564 131.733 7.99564C131.346 7.99564 131.014 7.66555 131.014 7.28044C131.014 6.7828 131.525 6.42621 131.987 6.60099ZM129.505 7.57218C130.002 7.74651 130.278 7.92014 130.668 8.30386C131.045 8.67582 131.282 9.04664 131.453 9.53675C131.56 9.84218 131.568 9.91077 131.568 10.5025C131.568 11.0943 131.56 11.1629 131.453 11.4683C131.287 11.942 131.045 12.328 130.689 12.684C130.333 13.0401 129.948 13.2827 129.474 13.4484C129.169 13.5552 129.1 13.5633 128.509 13.5633C127.918 13.5633 127.849 13.5552 127.544 13.4484C127.054 13.277 126.683 13.0407 126.312 12.6625C125.93 12.2744 125.757 11.9998 125.578 11.4996C125.454 11.1539 125.449 11.1141 125.451 10.5025C125.452 9.92187 125.462 9.83643 125.562 9.53675C125.777 8.89996 126.233 8.30033 126.783 7.9349C127.385 7.53446 127.814 7.41515 128.591 7.43311C129.086 7.44454 129.184 7.45954 129.505 7.57218ZM128.025 8.55278C126.945 8.84358 126.287 9.92766 126.558 10.9697C126.755 11.7243 127.289 12.258 128.045 12.455C129.457 12.8229 130.828 11.4507 130.46 10.0383C130.174 8.93888 129.076 8.26946 128.025 8.55278Z" fill="#57B7F7"/>
</svg>
