<svg width="183" height="104" viewBox="0 0 183 104" fill="none" xmlns="http://www.w3.org/2000/svg">
<path fill-rule="evenodd" clip-rule="evenodd" d="M93.2932 6.46754C92.7672 6.95399 83.1939 18.9929 82.5749 19.9462C82.1598 20.5854 82.3692 21.4212 83.0339 21.7798C83.2749 21.9097 84.8445 22.0003 86.8571 22.0003H90.2717V30.9033C90.2717 39.2646 90.2945 39.8273 90.6487 40.1502C90.9653 40.4391 91.5371 40.4942 94.2238 40.4942C97.0605 40.4942 97.4606 40.4511 97.7631 40.1141C98.0694 39.7731 98.1043 38.8264 98.1043 30.8672V22.0003H101.562C104.271 22.0003 105.114 21.934 105.453 21.695C106.017 21.2965 106.161 20.6949 105.839 20.0705C105.506 19.4226 95.7487 7.08345 95.0827 6.46754C94.8047 6.2105 94.4021 6 94.188 6C93.9738 6 93.5713 6.2105 93.2932 6.46754ZM98.0012 14.2508C100.042 16.8343 101.742 19.0269 101.78 19.1234C101.818 19.22 100.596 19.299 99.064 19.299C95.0566 19.299 95.4247 18.2976 95.4247 29.1973V38.0006H94.188H92.9512V29.1973C92.9512 18.2976 93.3194 19.299 89.312 19.299C87.7803 19.299 86.558 19.22 86.5959 19.1234C86.7064 18.8412 94.0746 9.55352 94.188 9.55352C94.2447 9.55352 95.9606 11.6672 98.0012 14.2508ZM119.611 32.8907C115.68 33.6487 112.95 35.1808 111.856 37.2436L111.399 38.1045L111.343 55.0918C111.312 64.4348 111.24 72.0792 111.182 72.0792C111.125 72.0792 110.514 71.7922 109.825 71.4416C107.509 70.2628 105.817 69.931 102.124 69.931C98.0903 69.931 96.6909 70.2578 93.1141 72.0355C93.0335 72.0756 92.9407 66.8886 92.908 60.5091C92.8511 49.4597 92.829 48.8708 92.4427 48.0856C91.4995 46.1676 89.0679 44.5942 85.7838 43.7765C83.2314 43.1411 78.761 43.1411 76.2086 43.7765C72.9245 44.5942 70.4929 46.1676 69.5497 48.0856C69.1784 48.8403 69.1387 49.4406 69.0791 55.193L69.014 61.4759L68.1555 61.0346C66.8142 60.3447 64.6846 59.6706 62.961 59.3903C60.8281 59.0433 56.8557 59.2534 54.7157 59.826C51.4467 60.7009 48.8382 62.6099 48.2619 64.5495C47.9127 65.7239 47.9127 92.5645 48.2619 93.739C48.872 95.792 51.7641 97.7831 55.3341 98.6079C57.6016 99.1317 62.3243 99.1305 64.5657 98.6056C66.37 98.1829 69.1189 96.8811 69.8399 96.1075L70.3164 95.5959L71.3792 96.411C72.5308 97.2942 74.8039 98.2613 76.7707 98.7047C78.7926 99.1608 84.0285 99.044 86.0276 98.4986C88.0705 97.9413 89.4849 97.2886 90.7152 96.3362L91.6741 95.594L92.1517 96.1064C92.8735 96.8809 95.6213 98.1827 97.4268 98.6056C99.6681 99.1305 104.391 99.1317 106.658 98.6079C108.563 98.1677 111.385 96.8724 112.089 96.1147L112.573 95.594L113.532 96.3362C114.756 97.2834 116.166 97.9363 118.22 98.5058C120.562 99.1556 125.9 99.155 128.268 98.5046C131.437 97.635 133.647 96.1731 134.579 94.3302C134.997 93.5054 135 93.2754 135 65.8453C135 38.4152 134.997 38.1851 134.579 37.3604C133.641 35.507 131.394 34.0269 128.268 33.2042C126.16 32.6492 121.701 32.4878 119.611 32.8907ZM126.582 35.5927C128.829 36.0284 130.338 36.6736 131.421 37.6625C132.766 38.8904 132.766 39.6044 131.421 40.8322C128.495 43.5032 121.026 44.0045 116.52 41.8322C115.71 41.4411 114.805 40.8327 114.511 40.48C113.395 39.1437 114.081 37.84 116.52 36.6607C119.135 35.3969 123.296 34.9551 126.582 35.5927ZM115.065 44.1376C115.579 44.4273 116.912 44.91 118.028 45.2101C119.769 45.6789 120.493 45.758 123.148 45.7711C126.621 45.7882 128.866 45.3499 131.165 44.2066C131.834 43.8742 132.424 43.6466 132.478 43.7009C132.698 43.9222 132.272 45.3001 131.814 45.8484C130.696 47.1873 127.682 48.2595 124.327 48.5113C119.245 48.8926 113.976 46.7648 113.976 44.3311C113.976 43.935 114.01 43.6111 114.053 43.6111C114.095 43.6111 114.55 43.848 115.065 44.1376ZM84.1911 46.2065C86.6188 46.6408 88.1381 47.3007 89.3132 48.4313C90.2325 49.3157 90.315 49.4707 90.1933 50.0837C90.006 51.0284 89.3769 51.626 87.6993 52.453C85.7993 53.3898 83.7582 53.7935 80.9313 53.7917C78.1967 53.79 75.7562 53.2719 73.9755 52.315C72.5269 51.5366 71.9751 50.9708 71.7991 50.0837C71.6775 49.4714 71.7609 49.3138 72.6796 48.4212C74.8177 46.3436 79.704 45.4035 84.1911 46.2065ZM117.789 50.4588C120.283 51.1175 122.933 51.3372 125.247 51.077C127.46 50.8283 130.367 50.0443 131.539 49.3801C131.966 49.1381 132.374 48.9988 132.446 49.0711C132.672 49.2995 132.326 50.613 131.893 51.1682C131.297 51.9319 128.776 53.1003 126.918 53.4737C124.924 53.8746 121.32 53.8795 119.468 53.4841C117.57 53.0787 115.331 52.0098 114.585 51.1535C114.135 50.6363 113.976 50.2442 113.976 49.6499V48.8459L115.058 49.4348C115.653 49.7585 116.882 50.2194 117.789 50.4588ZM76.1524 56.0005C77.2788 56.3022 78.3407 56.3872 80.9962 56.3887C84.809 56.3908 86.6975 56.0217 89.0823 54.808L90.3308 54.1727L90.2144 55.0469C90.0612 56.199 89.1844 57.0993 87.4179 57.9185C85.8669 58.6377 83.0607 59.1958 80.9962 59.1958C76.2507 59.1958 71.7208 57.1218 71.7208 54.9489V54.2357L73.2151 54.925C74.0371 55.3042 75.3588 55.7881 76.1524 56.0005ZM118.51 55.9999C119.725 56.3068 120.763 56.3864 123.354 56.3712C126.973 56.3498 128.793 56.0011 131.065 54.894C131.699 54.5852 132.301 54.2922 132.403 54.243C132.509 54.1917 132.527 54.5426 132.444 55.0642C132.261 56.2224 131.426 57.1141 129.862 57.8219C127.647 58.8234 126.262 59.0821 123.148 59.0757C119.755 59.0686 117.633 58.5863 115.739 57.3923C114.505 56.6141 113.976 55.8526 113.976 54.856V54.2357L115.47 54.9225C116.292 55.3002 117.66 55.785 118.51 55.9999ZM72.9128 60.1072C75.6249 61.4905 79.677 62.1266 83.1689 61.7174C85.5202 61.4419 87.5434 60.8906 89.0797 60.1072C90.2803 59.4948 90.2717 59.4946 90.2717 60.1413C90.2717 62.1766 87.3602 63.8492 82.8556 64.4013C78.4997 64.9351 73.1129 63.3852 72.0374 61.2881C71.7344 60.6975 71.6004 59.6114 71.8306 59.6114C71.8912 59.6114 72.3781 59.8346 72.9128 60.1072ZM114.703 59.8963C115.326 60.3333 117.829 61.1838 119.438 61.505C120.291 61.6754 121.976 61.7806 123.56 61.7621C126.558 61.7274 129.291 61.1518 131.277 60.1373C131.874 59.8327 132.41 59.6322 132.469 59.6916C132.671 59.8954 132.31 61.2314 131.916 61.7361C131.412 62.3824 129.467 63.4234 127.926 63.8718C122.15 65.5525 113.976 63.4729 113.976 60.3227C113.976 59.5407 114.095 59.4707 114.703 59.8963ZM63.3728 62.2074C65.4881 62.6517 67.1162 63.3505 68.1384 64.2525C68.9012 64.9258 69.0412 65.1693 69.0412 65.8222C69.0412 68.5699 62.1808 70.5541 56.4389 69.4672C53.2704 68.8675 50.6964 67.244 50.6964 65.8453C50.6964 64.313 53.7519 62.5249 57.1892 62.0457C58.6638 61.84 62.045 61.9285 63.3728 62.2074ZM75.7401 66.5073C77.2009 66.9333 77.8127 66.9869 81.0993 66.9767C84.5368 66.9661 84.9441 66.9235 86.6394 66.3984C87.6457 66.0867 88.8748 65.5922 89.3705 65.2992L90.2717 64.7668V65.4203C90.2717 66.3504 89.8071 67.1359 88.8694 67.7909C85.1205 70.4101 77.291 70.4598 73.3182 67.89C72.2243 67.1822 71.7208 66.4111 71.7208 65.4432V64.8125L72.9059 65.4195C73.5577 65.7532 74.8332 66.2428 75.7401 66.5073ZM117.583 66.3922C119.296 66.9204 119.714 66.9653 123.045 66.9763C127.084 66.9896 128.901 66.6453 131.337 65.4056L132.586 64.7703L132.468 65.6713C131.965 69.5245 122.009 71.1996 116.417 68.3719C114.731 67.5191 113.976 66.6289 113.976 65.4941V64.7888L114.852 65.3044C115.333 65.588 116.562 66.0776 117.583 66.3922ZM54.9219 71.9017C56.2928 72.2803 57.1269 72.3582 59.8688 72.3634C63.5612 72.3703 65.5353 71.9871 67.8339 70.8174L69.0412 70.203V71.0213C69.0412 72.1213 68.3259 72.9453 66.6858 73.7343C64.6331 74.7219 62.8981 75.0608 59.8688 75.0656C56.894 75.0704 55.412 74.7751 53.2032 73.7367C51.4792 72.9265 50.6964 72.081 50.6964 71.0292V70.2308L51.9846 70.8386C52.6933 71.1728 54.0149 71.6511 54.9219 71.9017ZM73.1822 70.8943C75.5136 72.0305 77.2631 72.3582 80.9962 72.3582C84.7293 72.3582 86.4788 72.0305 88.8103 70.8943C89.4441 70.5855 90.046 70.2925 90.148 70.2433C90.2517 70.193 90.2818 70.5417 90.216 71.0356C90.0101 72.5837 88.3764 73.7924 85.3917 74.6055C84.1243 74.9507 83.183 75.0448 80.9962 75.0448C78.8095 75.0448 77.8681 74.9507 76.6007 74.6055C73.616 73.7924 71.9823 72.5837 71.7764 71.0356C71.7107 70.5417 71.7407 70.193 71.8444 70.2433C71.9465 70.2925 72.5483 70.5855 73.1822 70.8943ZM115.065 70.7355C115.579 71.0252 116.912 71.5079 118.028 71.808C119.769 72.2768 120.493 72.3559 123.148 72.369C126.625 72.3861 128.882 71.9482 131.169 70.8131C131.84 70.4804 132.43 70.2506 132.482 70.3027C132.698 70.5207 132.268 71.9027 131.814 72.4463C130.696 73.7852 127.682 74.8574 124.327 75.1092C119.245 75.4905 113.976 73.3627 113.976 70.929C113.976 70.5329 114.01 70.209 114.053 70.209C114.095 70.209 114.55 70.4459 115.065 70.7355ZM106.452 73.0053C108.187 73.4677 110.144 74.4717 110.768 75.2188C111.582 76.1944 111.478 76.9617 110.388 78.0146C107.733 80.5793 100.144 81.223 95.7353 79.2575C94.1346 78.5439 92.9512 77.3933 92.9512 76.5505C92.9512 74.9584 95.2099 73.5132 98.8257 72.7917C100.633 72.4312 104.729 72.5459 106.452 73.0053ZM117.789 77.0567C120.283 77.7154 122.933 77.9351 125.247 77.6749C127.46 77.4262 130.367 76.6422 131.539 75.978C131.966 75.736 132.374 75.5967 132.446 75.669C132.672 75.8974 132.326 77.2109 131.893 77.7661C131.297 78.5298 128.776 79.6982 126.918 80.0716C124.924 80.4725 121.32 80.4774 119.468 80.082C117.57 79.6766 115.331 78.6077 114.585 77.7514C114.135 77.2342 113.976 76.8421 113.976 76.2478V75.4438L115.058 76.0327C115.653 76.3564 116.882 76.8173 117.789 77.0567ZM52.1677 76.227C54.941 77.5286 58.5453 78.0666 61.9871 77.693C64.2412 77.4484 67.0393 76.6812 68.1379 76.0063C69.0045 75.4743 69.0412 75.491 69.0412 76.4188C69.0412 77.1006 68.9095 77.3457 68.1909 78.0001C64.6662 81.2101 54.9215 81.2189 51.6045 78.0146C50.8541 77.2896 50.6964 77.0052 50.6964 76.3745C50.6964 75.955 50.7322 75.6117 50.7764 75.6117C50.8203 75.6117 51.4462 75.8887 52.1677 76.227ZM73.2465 76.2409C75.6012 77.3173 77.8378 77.7541 80.9962 77.7541C84.1546 77.7541 86.3912 77.3173 88.746 76.2409C89.503 75.8949 90.156 75.6117 90.1971 75.6117C90.464 75.6117 90.1909 76.9183 89.8019 77.5031C89.1895 78.4234 86.7476 79.6679 84.7445 80.0803C78.8915 81.286 71.7208 79.1519 71.7208 76.2043C71.7208 75.8783 71.7543 75.6117 71.7954 75.6117C71.8364 75.6117 72.4894 75.8949 73.2465 76.2409ZM54.7784 82.5209C56.1246 82.8985 56.9107 82.9652 59.9718 82.9627C63.311 82.9596 63.7169 82.9172 65.4341 82.3896C66.4544 82.0762 67.6832 81.5985 68.1652 81.328L69.0412 80.8359V81.6365C69.0412 82.7098 68.3272 83.5343 66.7095 84.3289C64.5533 85.3883 63.0878 85.6773 59.8688 85.6782C57.4802 85.679 56.7001 85.5973 55.3403 85.205C52.2361 84.3092 50.6964 83.1246 50.6964 81.6324V80.8278L51.9442 81.452C52.6306 81.7953 53.9061 82.2763 54.7784 82.5209ZM76.1524 82.5984C77.2788 82.9001 78.3407 82.9851 80.9962 82.9866C84.809 82.9887 86.6975 82.6196 89.0823 81.4059L90.3308 80.7706L90.2144 81.6448C90.0612 82.7969 89.1844 83.6972 87.4179 84.5164C85.8669 85.2356 83.0607 85.7937 80.9962 85.7937C76.2507 85.7937 71.7208 83.7197 71.7208 81.5468V80.8336L73.2151 81.5229C74.0371 81.9021 75.3588 82.3861 76.1524 82.5984ZM96.5584 82.3898C98.2754 82.917 98.682 82.9596 102.021 82.9627C106.023 82.966 107.701 82.651 110.091 81.447L111.296 80.8398V81.6384C111.296 83.1241 109.751 84.3107 106.652 85.205C105.292 85.5973 104.512 85.679 102.124 85.6782C98.9047 85.6773 97.4391 85.3883 95.2829 84.3289C93.6516 83.5277 92.9512 82.7119 92.9512 81.6131V80.7891L93.8273 81.3047C94.309 81.5883 95.5381 82.0766 96.5584 82.3898ZM118.51 82.5978C119.725 82.9047 120.763 82.9843 123.354 82.9691C126.973 82.9477 128.793 82.599 131.065 81.4919C131.699 81.1831 132.301 80.8901 132.403 80.8409C132.509 80.7896 132.527 81.1405 132.444 81.6621C132.261 82.8203 131.426 83.712 129.862 84.4198C127.647 85.4213 126.262 85.68 123.148 85.6736C119.755 85.6665 117.633 85.1842 115.739 83.9902C114.505 83.212 113.976 82.4505 113.976 81.4539V80.8336L115.47 81.5204C116.292 81.8981 117.66 82.3829 118.51 82.5978ZM52.2188 86.905C56.7017 89.0143 63.7039 88.9244 68.0621 86.7016L69.0412 86.2022V86.953C69.0412 87.3659 68.8604 87.9598 68.6392 88.2727C68.0897 89.0507 66.0984 90.0812 64.159 90.5911C61.9005 91.185 57.836 91.1848 55.5763 90.5907C52.5937 89.8062 50.6964 88.3762 50.6964 86.9121C50.6964 86.5064 50.7658 86.2105 50.851 86.2544C50.9361 86.2982 51.5516 86.591 52.2188 86.905ZM73.192 86.8279C75.6933 88.008 77.4476 88.35 80.9962 88.35C84.5448 88.35 86.2991 88.008 88.8004 86.8279C89.5218 86.4877 90.16 86.2093 90.2189 86.2093C90.2779 86.2093 90.2748 86.5937 90.2123 87.0638C90.0666 88.1595 89.3019 88.9707 87.6952 89.7339C83.9918 91.4933 78.0006 91.4933 74.2973 89.7339C72.6906 88.9707 71.9258 88.1595 71.7801 87.0638C71.7177 86.5937 71.7146 86.2093 71.7735 86.2093C71.8325 86.2093 72.4706 86.4877 73.192 86.8279ZM94.0402 86.7358C95.3484 87.4731 98.5277 88.2415 100.924 88.3999C104.071 88.6077 108.413 87.7896 110.432 86.6083C110.807 86.3888 111.155 86.2093 111.205 86.2093C111.255 86.2093 111.296 86.5332 111.296 86.9293C111.296 88.4042 109.43 89.7975 106.381 90.5996C104.158 91.1846 100.074 91.1804 97.8334 90.5911C95.894 90.0812 93.9027 89.0507 93.3532 88.2727C93.0193 87.8 92.769 86.2093 93.0283 86.2093C93.0708 86.2093 93.5261 86.4462 94.0402 86.7358ZM114.703 86.4942C115.326 86.9312 117.829 87.7817 119.438 88.1029C121.778 88.5705 125.838 88.4346 128.216 87.8091C129.303 87.5232 130.668 87.0463 131.25 86.7491C132.52 86.1002 132.527 86.0996 132.527 86.6315C132.527 88.1191 131.142 89.3763 128.53 90.2601C122.673 92.2424 113.976 90.247 113.976 86.9206C113.976 86.1386 114.095 86.0686 114.703 86.4942ZM54.0003 92.8883C55.8173 93.5171 56.1809 93.5696 59.2504 93.6471C62.9862 93.7415 64.9728 93.4036 67.5155 92.2412C68.2725 91.8952 68.9255 91.612 68.9666 91.612C69.0076 91.612 69.0412 91.9553 69.0412 92.3748C69.0412 93.004 68.8837 93.2897 68.1431 94.0054C65.3969 96.6579 57.9063 97.2088 53.3154 95.0957C51.5275 94.2728 50.6964 93.3575 50.6964 92.2113V91.3703L51.3722 91.7915C51.7441 92.023 52.9266 92.5165 54.0003 92.8883ZM75.6443 93.099C77.0263 93.5364 77.5715 93.5861 80.9962 93.5861C85.1877 93.5861 86.4625 93.3367 89.0793 92.0051L90.2717 91.3982V92.0349C90.2717 93.5599 88.8977 94.757 86.0561 95.7083C84.5271 96.2201 84.1311 96.2635 80.9962 96.2635C77.8656 96.2635 77.4641 96.2197 75.9462 95.7114C73.0443 94.7395 71.7208 93.5879 71.7208 92.0349V91.3982L72.9132 92.0051C73.569 92.3389 74.7981 92.8311 75.6443 93.099ZM97.6255 93.2918C99.2485 93.6715 99.9798 93.722 102.778 93.6484C105.801 93.5688 106.183 93.5131 107.992 92.8877C109.066 92.5163 110.248 92.023 110.62 91.7915L111.296 91.3703V92.2113C111.296 93.3575 110.465 94.2728 108.677 95.0957C104.086 97.2088 96.5955 96.6579 93.8493 94.0054C93.0838 93.2658 92.9512 93.0157 92.9512 92.3104V91.483L94.3426 92.1662C95.1077 92.5419 96.5852 93.0485 97.6255 93.2918ZM117.899 93.099C119.282 93.5366 119.825 93.5858 123.251 93.585C127.456 93.5838 128.145 93.4535 131.059 92.1082L132.581 91.4061L132.466 92.2884C132.141 94.7792 127.701 96.5692 122.427 96.336C119.632 96.2124 117.789 95.7781 116.119 94.8488C114.728 94.0756 113.976 93.1092 113.976 92.0978V91.3982L115.168 92.0051C115.824 92.3389 117.053 92.8311 117.899 93.099Z" fill="#004481"/>
</svg>
